<svg xmlns="http://www.w3.org/2000/svg" viewBox="0 0 404.58 85.65"><g id="Слой_2" data-name="Слой 2"><g id="Слой_1-2" data-name="Слой 1"><path d="M125.28,62.1a3.74,3.74,0,0,1-2.64-2.6,16.51,16.51,0,0,1-.63-3.56c-.17-1.67-.23-31.3-.23-34.18h8.84V20.37h-8.84v-8a.6.6,0,0,0-1.15-.26,26,26,0,0,1-2.58,4.36,10,10,0,0,1-8,3.95H101.4v-8a.6.6,0,0,0-1.16-.22,21.84,21.84,0,0,1-1.82,3.6,9.79,9.79,0,0,1-1.8,2.09A31.54,31.54,0,0,0,55.57,3.51l-.28.12-.58.27-.88.41a4.26,4.26,0,0,0-.55.34l-.18.09,0,0a4.22,4.22,0,0,0-1.64,3.31h0l.13,2.3h0a1.28,1.28,0,0,0,2.07.89l0,0a44.48,44.48,0,0,1,8.56-5.38c.67-.32,1.37-.64,2.09-1A22.46,22.46,0,0,1,73,3.45c4.45,0,7.7,1.49,10.36,2.51A30.37,30.37,0,0,1,95.5,18.66a10.28,10.28,0,0,1-5.66,1.72H88.77v1.26a3,3,0,0,1,.43.12,6.47,6.47,0,0,1,4.17,2.76,11,11,0,0,1,1.13,4.59V47.62A32.86,32.86,0,0,1,86.58,57a22.67,22.67,0,0,1-13,5.31h-.1a13,13,0,0,1-9.67-4.21,20.6,20.6,0,0,1-5.69-10.54,59.93,59.93,0,0,0,11.26-2.71,44.42,44.42,0,0,0,9.15-3.6,15.07,15.07,0,0,0,6.09-5.54,9,9,0,0,0-.25-8.65c-1.69-3-4.91-4.49-8.13-5.14a24.3,24.3,0,0,0-6.2-.38A22.36,22.36,0,0,0,50.91,35.05a21,21,0,0,0,4.81,22.79c4,4,10.36,5.87,16.1,5.87H72c.26,0,.51,0,.77,0a23.63,23.63,0,0,0,14.7-5.64,33.92,33.92,0,0,0,7.06-7.78v1.76a14.9,14.9,0,0,0,1.75,7.73,8.75,8.75,0,0,0,7.16,4.07,7.52,7.52,0,0,0,3-.57c1.81-.82,2.44-1.79,2.23-2.55a4.63,4.63,0,0,1-3.77,1.33,3.74,3.74,0,0,1-2.64-2.6,16.51,16.51,0,0,1-.63-3.56c-.17-1.67-.23-31.3-.23-34.18h6.68a7.48,7.48,0,0,1,3.75.9,5.36,5.36,0,0,1,1.92,1.86,11,11,0,0,1,1.13,4.59v23a14.9,14.9,0,0,0,1.75,7.73,8.75,8.75,0,0,0,7.16,4.07,7.52,7.52,0,0,0,3-.57c1.81-.82,2.44-1.79,2.23-2.55A4.63,4.63,0,0,1,125.28,62.1Zm-55.85-39a10.52,10.52,0,0,1,1.1-.3,12.38,12.38,0,0,1,2.71-.31,5.93,5.93,0,0,1,4.88,2c2.77,2.77,1.24,8-.49,10.87A21.65,21.65,0,0,1,69.34,43a24.14,24.14,0,0,1-3.94,1.7,54.7,54.7,0,0,1-7.69,1.6c-.05-.46-.27-2.38-.27-3.64C57.44,34.9,61.5,25.62,69.43,23.11Z" style="fill:#fff"/><path d="M37.24,31.7a17.24,17.24,0,0,0-5-1.83A.88.88,0,0,1,32,28.21a18.23,18.23,0,0,0,4.66-3.4,10.92,10.92,0,0,0,3-8C39.39,8.37,30.34,5.13,23.16,5l-.6,0H7.06l-6-.2A.79.79,0,0,0,.53,6.19a7.28,7.28,0,0,1,3.09,5.92V56.39c0,1.9-1.62,4.29-3.38,5.87A.72.72,0,0,0,.8,63.51l2.11-.22H24.54c0,.07,5.85-.58,6.41-.7a23.42,23.42,0,0,0,5.52-2,15.65,15.65,0,0,0,7.8-8.52,16.59,16.59,0,0,0,1-6C45.14,40.31,42.26,34.49,37.24,31.7ZM10.52,10.88a4.65,4.65,0,0,1,4.65-4.65h5.6A10.91,10.91,0,0,1,29.1,9.85a10.89,10.89,0,0,1,2.15,3.9c1.17,3.77,1,8.26-1.19,11.62-1.35,2-3.29,2.9-5.34,4A32.72,32.72,0,0,0,20,32.52a28.21,28.21,0,0,0-8.21,10.85.68.68,0,0,1-1.3-.28Zm22.4,46.68c-.25.27-.5.53-.77.78A14.26,14.26,0,0,1,22.33,62H15.17a4.65,4.65,0,0,1-4.65-4.65V55.73a23.84,23.84,0,0,1,.63-5.59c3-12.13,9.49-17,14.25-19.54h0a4.88,4.88,0,0,1,3.17-.34,9.28,9.28,0,0,1,6.06,4.89C38.37,42,38.37,51.58,32.92,57.56Z" style="fill:#fff"/><path d="M190.75,21.54c-4-.27-7.12,1.92-9.26,4.28a1.12,1.12,0,0,1-1.93-.77V23.64a.75.75,0,0,0-1.29-.51,13.81,13.81,0,0,1-8.71,3.59.8.8,0,0,0-.41,1.43c1.82,1.41,3.51,3.7,3.51,6.13V48a32.4,32.4,0,0,1-7.7,9,22.64,22.64,0,0,1-13.05,5.31h-.09a13,13,0,0,1-9.68-4.21,20.7,20.7,0,0,1-5.81-11.07s6.85-1.07,7.26-1.16a49.79,49.79,0,0,0,13.27-4.62A15.07,15.07,0,0,0,163,35.74a9,9,0,0,0-.25-8.65c-1.68-3-4.9-4.49-8.12-5.14a24.36,24.36,0,0,0-6.2-.38,22.37,22.37,0,0,0-19.09,13.48,21,21,0,0,0,4.81,22.79c4,4,10.36,5.87,16.11,5.87h.15c.25,0,.51,0,.76,0a23.67,23.67,0,0,0,14.71-5.64,33.51,33.51,0,0,0,6.83-7.48V56.4a8.7,8.7,0,0,1-1.43,4.6,4.45,4.45,0,0,1-1.5,1.55.69.69,0,0,0,.38,1.27c3.4-.06,8.08-.16,11.71-.09a.69.69,0,0,0,.41-1.25A6.93,6.93,0,0,1,180.71,61a8.45,8.45,0,0,1-1.15-4.6v-21A13.05,13.05,0,0,1,184.49,25a9.08,9.08,0,0,1,6.17-2.06c.24,0,.47,0,.69.07a3.09,3.09,0,0,1,2.29,4.41v0c-.32.62-.65,1.22-1,1.81a45.44,45.44,0,0,1-6,8.41l0,0a1.3,1.3,0,0,0,.95,2.16,11.52,11.52,0,0,1,1.52.18,4.26,4.26,0,0,0,4.47-2,29.28,29.28,0,0,0,2.26-4.89A22.24,22.24,0,0,0,197,28.8a6.56,6.56,0,0,0-.87-4.67C195.06,22.58,193.26,21.71,190.75,21.54ZM135.82,42.61c0-7.71,4.07-17,12-19.5a10.06,10.06,0,0,1,1.11-.3,12.22,12.22,0,0,1,2.7-.31,6,6,0,0,1,4.89,2c2.77,2.77,1.23,8-.5,10.87A21.63,21.63,0,0,1,147.73,43a33.92,33.92,0,0,1-11.62,3.4S135.82,44.05,135.82,42.61Z" style="fill:#fff"/><path d="M248.51,31.7a17.3,17.3,0,0,0-5-1.83.88.88,0,0,1-.22-1.66,18.06,18.06,0,0,0,4.66-3.4,10.88,10.88,0,0,0,3-8C250.66,8.37,241.6,5.13,234.42,5l-.59,0H218.32l-6-.2a.79.79,0,0,0-.52,1.42,7.28,7.28,0,0,1,3.09,5.92V56.39c0,1.9-1.61,4.29-3.37,5.87a.72.72,0,0,0,.55,1.25l2.12-.22h21.63c0,.07,5.84-.58,6.41-.7a23.74,23.74,0,0,0,5.52-2,15.69,15.69,0,0,0,7.8-8.52,16.38,16.38,0,0,0,1-6C256.4,40.31,253.52,34.49,248.51,31.7ZM221.78,10.88a4.65,4.65,0,0,1,4.65-4.65H232a10.93,10.93,0,0,1,8.34,3.62,11,11,0,0,1,2.14,3.9c1.17,3.77,1,8.26-1.19,11.62-1.34,2-3.29,2.9-5.34,4a32.08,32.08,0,0,0-4.68,3.13,28.21,28.21,0,0,0-8.21,10.85.68.68,0,0,1-1.31-.28Zm22.41,46.68q-.37.4-.78.78A14.22,14.22,0,0,1,233.6,62h-7.17a4.65,4.65,0,0,1-4.65-4.65V55.73a23.33,23.33,0,0,1,.64-5.59c3-12.13,9.49-17,14.24-19.54h0a4.91,4.91,0,0,1,3.18-.34,9.3,9.3,0,0,1,6.06,4.89C249.63,42,249.63,51.58,244.19,57.56Z" style="fill:#fff"/><path d="M285.31,63.87c11.27,0,20.84-9.59,21-20.9a21.18,21.18,0,0,0-6.09-15.29,20.58,20.58,0,0,0-14.94-6,21,21,0,0,0-20.95,20.53c-.36.47-.7.95-1,1.46-4.27,6.58-5.67,14.87-3.65,21.64a23.89,23.89,0,0,0,17.24,16.09c.4.09.81.14,1.21.2,0,0,0,0,0,0l.31,0a23.1,23.1,0,0,0,3.51.3,22.83,22.83,0,0,0,3.79-.35c.39-.06.79-.12,1.18-.2l.25-.06a44.44,44.44,0,0,0,4.45-1.26,30.07,30.07,0,0,0,12.08-7.2,4.27,4.27,0,0,0,1.08-4.31h0L304,66.4h0a1.28,1.28,0,0,0-2.24-.21l0,0a43.45,43.45,0,0,1-6.37,7.62c-.59.55-1.19,1.11-1.83,1.67a22.13,22.13,0,0,1-7.76,4,18.56,18.56,0,0,1-2.25.57,15.43,15.43,0,0,1-6.24-.09h0A22.45,22.45,0,0,1,261,64.87c-1.9-6.36-.59-14.16,3.42-20.39C265.42,55,274.58,63.87,285.31,63.87ZM276.4,28.25c2.3-4,5.46-6,8.91-6,3.73,0,6.61,2,9.19,6a28.79,28.79,0,0,1,3.74,14.36,32.24,32.24,0,0,1-.19,3.46.91.91,0,0,1-1.78.14A17.46,17.46,0,0,0,273.55,35,22.28,22.28,0,0,1,276.4,28.25Zm-3.21,8.39a15.69,15.69,0,0,1,17.05,2.69,15.24,15.24,0,0,1,3.32,19c-2.35,3.12-5,4.68-8.25,4.68-3.45,0-6.61-2-8.91-6-2.58-3.74-3.73-8.62-3.73-14.37A32.92,32.92,0,0,1,273.19,36.64Z" style="fill:#fff"/><path d="M353.75,56.4V.84a.85.85,0,0,0-1.38-.65,18.49,18.49,0,0,1-9.2,3.7.69.69,0,0,0-.31,1.25c1.88,1.37,3.7,3.82,3.7,6.45v14a1.22,1.22,0,0,1-2.05.89c-.22-.21-.41-.38-.55-.5-5.34-4.44-11.09-5-17.46-3.3-5.68,1.55-10.5,6.16-13,11.41a19.78,19.78,0,0,0-2,8.48,20.59,20.59,0,0,0,6,14.94,22.65,22.65,0,0,0,12.65,6.14,22.12,22.12,0,0,0,7.17-.09,19,19,0,0,0,3.48-1A16.27,16.27,0,0,1,347.43,61c2,0,6,1.21,8.91,2.06a.69.69,0,0,0,.65-1.17C355.24,60.24,353.75,58.18,353.75,56.4Zm-7.19-5.17a11.92,11.92,0,0,1-1.5,5.81,9.49,9.49,0,0,1-5.58,4.53,25.67,25.67,0,0,1-5.87.93h-.06a10.79,10.79,0,0,1-9.42-4.84l-.26-.4c-2.87-3.73-4-8.61-4-14.36s1.15-10.63,3.73-14.65l.05-.07a11.72,11.72,0,0,1,11.14-5l.26,0a13.89,13.89,0,0,1,11.53,13.86Z" style="fill:#fff"/><path d="M404.12,21.79a32.74,32.74,0,0,1-4,.14c-1.07-.08-2.68-.15-3.95-.21a.74.74,0,0,0-.61,1.2,7.12,7.12,0,0,1,1.28,4.26c-1.87,5.08-7.61,20.63-11.76,31.27a1.51,1.51,0,0,1-2.79,0L369,28c-.59-1.49.09-2.9,1.14-4.05a1.11,1.11,0,0,0-.92-1.86c-2.29.22-5,.46-6.54.46s-3-.09-4.58-.24a.76.76,0,0,0-.5,1.39c.23.15.48.32.72.5a12.23,12.23,0,0,1,4,5.12l14.77,33.47a1.51,1.51,0,0,0,1.69.87l1.88-.39a1.52,1.52,0,0,1,1.71,2.07c-.53,1.26-1,2.24-1.28,2.88-1.26,2.55-3.92,7.9-7.36,11.74-2.37,2.54-5.88,4.51-8.2.66-2.53-4.19-.87-10.06-.87-10.06s-6.43,3.44-6.1,8.25,4.25,6.67,7.13,6.86h0c.16,0,.32,0,.49,0a7.88,7.88,0,0,0,2.23-.33c6.68-2,11.91-12.55,13.88-16.53,2.55-5.14,12.45-31.91,15.54-40.31a10.62,10.62,0,0,1,2.92-3.39c1.14-.81,2.57-1.81,3.6-2.52A.43.43,0,0,0,404.12,21.79Z" style="fill:#fff"/><path d="M.43,78a4,4,0,0,1,4.22-4,4,4,0,0,1,3.2,1.38L6.7,76.43a2.5,2.5,0,0,0-2-.91,2.49,2.49,0,1,0,0,5,2.46,2.46,0,0,0,2-.93l1.15,1.07A4,4,0,0,1,4.64,82,4,4,0,0,1,.43,78Z" style="fill:#fff"/><path d="M17.93,75.58h-2.5V81.9H13.66V75.58H11.18V74.12h6.75Z" style="fill:#fff"/><path d="M28.77,74.12l-3.31,6.15a3,3,0,0,1-2.61,1.81,3.34,3.34,0,0,1-1.27-.27L22,80.44a2.61,2.61,0,0,0,.77.15,1.22,1.22,0,0,0,1.09-.67l.07-.09-3.07-5.71H22.8l2.07,4.18L27,74.12Z" style="fill:#fff"/><path d="M40.56,80.43v3.08H38.89V81.9H33.4v1.61H31.73V80.43h.31c1,0,1.27-1.7,1.35-3.88l.09-2.43h6v6.31Zm-6.35,0h3.48V75.58H35l0,1.14C34.92,78.37,34.74,79.8,34.21,80.43Z" style="fill:#fff"/><path d="M44.79,74.12h1.79v5.07l3.72-5.07H52V81.9H50.21V76.84L46.49,81.9h-1.7Z" style="fill:#fff"/><path d="M63.16,74.12V81.9H61.38V79.83H59.73L58.36,81.9h-1.9l1.62-2.35A2.55,2.55,0,0,1,56.44,77c0-1.81,1.3-2.9,3.36-2.9ZM58.27,77c0,.89.52,1.41,1.53,1.41h1.58V75.58H59.85C58.82,75.58,58.27,76.06,58.27,77Z" style="fill:#fff"/><path d="M77.31,78.76H76.06V81.9H74.27V74.12h1.79v3.14h1.29l2.05-3.14h1.9l-2.55,3.75,2.63,4h-2Z" style="fill:#fff"/><path d="M84.67,78a4.26,4.26,0,1,1,4.26,4A4,4,0,0,1,84.67,78Zm6.69,0a2.44,2.44,0,1,0-2.43,2.49A2.37,2.37,0,0,0,91.36,78Z" style="fill:#fff"/><path d="M104.35,76.94c0,1.73-1.31,2.81-3.38,2.81H99.4V81.9H97.6V74.12H101C103,74.12,104.35,75.19,104.35,76.94Zm-1.83,0c0-.86-.55-1.36-1.65-1.36H99.4v2.7h1.47C102,78.28,102.52,77.78,102.52,76.94Z" style="fill:#fff"/><path d="M115.31,76.94c0,1.73-1.3,2.81-3.38,2.81h-1.57V81.9h-1.8V74.12h3.37C114,74.12,115.31,75.19,115.31,76.94Zm-1.83,0c0-.86-.55-1.36-1.65-1.36h-1.47v2.7h1.47C112.93,78.28,113.48,77.78,113.48,76.94Z" style="fill:#fff"/><path d="M125.54,80.45V81.9h-6V74.12h5.88v1.44h-4.09v1.69h3.61v1.4h-3.61v1.8Z" style="fill:#fff"/><path d="M133,78.76h-1.25V81.9H130V74.12h1.79v3.14h1.29l2-3.14H137l-2.55,3.75,2.63,4h-2.05Z" style="fill:#fff"/><path d="M149.13,80.43v3.11h-1.65V81.9H141V74.12h1.79v6.31h3.47V74.12H148v6.31Z" style="fill:#fff"/><path d="M153.35,74.12h1.79v5.07l3.71-5.07h1.69V81.9h-1.78V76.84l-3.71,5.06h-1.7Z" style="fill:#fff"/><path d="M165.5,74.12h1.79v5.07L171,74.12h1.69V81.9h-1.78V76.84L167.2,81.9h-1.7Z" style="fill:#fff"/><path d="M189,81.4v.84h-1.65v-.85c-2.64-.16-4.08-1.37-4.08-3.41s1.44-3.24,4.08-3.4v-.8H189v.79C191.59,74.73,193,76,193,78S191.6,81.26,189,81.4ZM187.31,80V76c-1.58.15-2.34.78-2.34,2S185.81,79.83,187.31,80Zm4-2c0-1.2-.79-1.84-2.34-2v4C190.53,79.84,191.3,79.19,191.3,78Z" style="fill:#fff"/><path d="M197.4,74.12h1.79v5.07l3.71-5.07h1.69V81.9h-1.78V76.84L199.1,81.9h-1.7Z" style="fill:#fff"/><path d="M215,75.58h-3.7V81.9h-1.79V74.12H215Z" style="fill:#fff"/><path d="M226.19,74.12l-3.31,6.15a3,3,0,0,1-2.61,1.81,3.3,3.3,0,0,1-1.27-.27l.43-1.37a2.73,2.73,0,0,0,.78.15,1.22,1.22,0,0,0,1.09-.67l.07-.09-3.07-5.71h1.92l2.07,4.18,2.14-4.18Z" style="fill:#fff"/><path d="M236.82,76.94c0,1.73-1.3,2.81-3.38,2.81h-1.57V81.9h-1.8V74.12h3.37C235.52,74.12,236.82,75.19,236.82,76.94Zm-1.82,0c0-.86-.56-1.36-1.66-1.36h-1.47v2.7h1.47C234.44,78.28,235,77.78,235,76.94Z" style="fill:#fff"/><path d="M247.75,79.19c0,1.79-1.2,2.71-3.2,2.71H241V74.12h1.79v2.55h2C246.68,76.67,247.75,77.51,247.75,79.19Zm-1.81,0c0-.86-.56-1.21-1.49-1.21h-1.63v2.55h1.63C245.37,80.56,245.94,80.1,245.94,79.22Zm2.8-5.1h1.79V81.9h-1.79Z" style="fill:#fff"/></g></g></svg>
