<svg id="Слой_1" data-name="Слой 1" xmlns="http://www.w3.org/2000/svg" viewBox="0 0 594.13 594.13"><rect width="594.13" height="594.13" style="fill:#d1a7b2"/><path d="M381.18,288.42l-10.74-5.93a8.83,8.83,0,0,1-.75-14.95,75.49,75.49,0,0,0,9.07-7.76c8.61-8.61,12.9-21.15,12.5-33.21-1.15-35-38.75-48.5-68.58-49.16l-2.47-.06,0,0H288.93a108.71,108.71,0,0,0-11.61-.88l-2.48-.06s0,0,0,0H210.45l-25-.85a3.3,3.3,0,0,0-2.15,5.91c7,5.3,12.83,13.39,12.83,24.6V390.07c0,7.88-6.71,17.8-14,24.35a3,3,0,0,0,2.31,5.2h144c-.05.29,24.27-2.39,26.62-2.93A97.62,97.62,0,0,0,378,408.56C392.8,401,404.6,389,410.38,373.18a69,69,0,0,0,4.06-25.11C414,324.16,402,300,381.18,288.42Zm-57-105.81c13.13,0,26.07,5.09,34.62,15a45.2,45.2,0,0,1,8.92,16.19c4.85,15.64,4.31,34.31-5,48.29-5.57,8.39-13.65,12-22.16,16.68-1.07.59-2.11,1.24-3.16,1.87-2.13,1.1-4.43,2.4-6.88,3.91l-5.42-3a8.78,8.78,0,0,1-1-14.75,79.68,79.68,0,0,0,9.32-8c8.61-8.6,12.9-21.14,12.5-33.21-.74-22.43-16.42-36-35.44-43Zm-47.38,0A43.75,43.75,0,0,1,302,196.76a45.25,45.25,0,0,1,8.92,16.18c4.85,15.65,4.31,34.32-5,48.29-5.57,8.4-13.65,12-22.16,16.69a135,135,0,0,0-19.47,13,117,117,0,0,0-34.09,45,2.84,2.84,0,0,1-5.44-1.17V201a19.34,19.34,0,0,1,13.5-18.43Zm-52,204.69a98,98,0,0,1,2.65-23.21c12.3-50.37,39.42-70.39,59.18-81.17l.06,0a20.35,20.35,0,0,1,13.21-1.43,36.73,36.73,0,0,1,18.91,11.46C296.28,311,268.47,346.3,257.05,413.5H244.14a19.33,19.33,0,0,1-19.34-19.33Zm49.08,26.2H263.17c11.24-64.87,37.89-98.7,59.31-115.91.9,1.33,1.77,2.71,2.58,4.19,15.44,28.52,15.44,68.31-7.19,93.12-1,1.14-2.1,2.23-3.21,3.27C303.76,408.47,288.88,413.5,273.88,413.5Zm100.77-17.69q-1.56,1.69-3.21,3.26c-10.91,10.31-25.78,15.33-40.78,15.33H315.15a95.5,95.5,0,0,0,17.46-6.74c14.83-7.53,26.62-19.61,32.41-35.38a69,69,0,0,0,4.06-25.11c-.48-23.62-12.16-47.46-32.53-59.2a85.33,85.33,0,0,1,12-5.75,18.45,18.45,0,0,1,7.69,0q16.58,3.92,25.6,20.41C397.28,331.2,397.27,371,374.65,395.81Z" style="fill:#222222"/></svg>
