<?xml version="1.0" encoding="UTF-8"?>
<svg xmlns="http://www.w3.org/2000/svg" xmlns:xlink="http://www.w3.org/1999/xlink" width="0" height="0">
    <symbol id="arrow-1" width="16" height="17" viewBox="0 0 16 17"><path d="M0.292893 14.7929C-0.0976311 15.1834 -0.0976311 15.8166 0.292893 16.2071C0.683418 16.5976 1.31658 16.5976 1.70711 16.2071L0.292893 14.7929ZM16 1.5C16 0.947715 15.5523 0.5 15 0.499999L6 0.5C5.44772 0.5 5 0.947715 5 1.5C5 2.05228 5.44772 2.5 6 2.5L14 2.5L14 10.5C14 11.0523 14.4477 11.5 15 11.5C15.5523 11.5 16 11.0523 16 10.5L16 1.5ZM1.70711 16.2071L15.7071 2.20711L14.2929 0.792893L0.292893 14.7929L1.70711 16.2071Z"/></symbol><symbol id="burger" width="30" height="16" viewBox="0 0 30 16"><path d="M0 1H30"/><path d="M0 8H22"/><path d="M0 15H30"/></symbol><symbol id="mouse" width="31" height="52" viewBox="0 0 31 52"><rect x="1" y="1" width="29" height="49.6667" rx="14.5" stroke-width="2"/><rect x="14.3076" y="10.3333" width="2.38462" height="9.53846" rx="1.19231"/></symbol></svg>
