<?xml version="1.0" encoding="utf-8"?>
<!-- Svg Vector Icons : http://www.onlinewebfonts.com/icon -->
<!DOCTYPE svg PUBLIC "-//W3C//DTD SVG 1.1//EN" "http://www.w3.org/Graphics/SVG/1.1/DTD/svg11.dtd">
<svg version="1.1" xmlns="http://www.w3.org/2000/svg" xmlns:xlink="http://www.w3.org/1999/xlink" x="0px" y="0px" viewBox="0 0 1000 1000" enable-background="new 0 0 1000 1000" xml:space="preserve" fill="#ffffff">
<metadata> Svg Vector Icons : http://www.onlinewebfonts.com/icon </metadata>
<g><path d="M755.6,992.8C591.5,992.8,360,851,192.6,648C54.2,480.3-10.3,307.5,15.6,173.9l0.9-3.1C19.2,163.9,86-1,237.9,7.5c0.9,0.1,49.7,0.8,70.4,62.1l73.3,229.6L276.5,404.3c19.2,46,109.2,236,312,312.6l92.2-92.2l253.4,59.6c19.8,5.4,55.7,29.4,55.5,82.9c1.5,15.5,8.6,144.1-160.8,215.3l-1.9,0.7C804.9,989.5,780.9,992.8,755.6,992.8C755.6,992.8,755.6,992.8,755.6,992.8z M49.9,182.3c-23,123,38.9,284.5,169.9,443.3C381,821,601.3,957.5,755.6,957.6c0,0,0,0,0,0c21.6,0,41.9-2.7,60.4-7.9C966.1,886,955,774.9,954.4,770.2l-0.1-1.1v-1.2c0.6-39.3-26.1-48.5-29.1-49.4l-233.5-54.9l-94.1,94.1l-10.5-3.7c-254.5-89.6-344.2-337.5-347.9-348l-3.7-10.5l105.9-105.9L274.7,80.7c-12.4-36.9-37.6-37.9-37.9-37.9c-4-0.2-7-0.3-10-0.3C113.3,42.5,56.2,167.6,49.9,182.3z"/></g>
</svg>
